# xmcd
#
# Track frame offsets: 
#        150
#        16800
#        40252
#        67015
#        81311
#        104307
#        123882
#        143805
#        158054
#        162423
#
# Disc length: 2517 seconds
#
# Revision: 0
# Processed by: cddbd v1.5.2PL0 Copyright (c) Steve Scherf et al.
# Submitted via: ExactAudioCopyFreeDBPlugin 1.0
#
DISCID=7d09d30a
DTITLE=Steve Walwyn - Instinct To Survive
DYEAR=2015
DGENRE=Blues
TTITLE0=Instinct To Survive
TTITLE1=Sign of the Time
TTITLE2=Feel Like Breaking Down
TTITLE3=Toad In The Hole
TTITLE4=Never Want to Let You Go
TTITLE5=Swet Louise
TTITLE6=Call on Me
TTITLE7=Dream On...
TTITLE8=Sacred Lands part 1
TTITLE9=Sacred Lands part 2
EXTD=
EXTT0=
EXTT1=
EXTT2=
EXTT3=
EXTT4=
EXTT5=
EXTT6=
EXTT7=
EXTT8=
EXTT9=
PLAYORDER=
